<?xml version="1.0" standalone="no"?>
<!DOCTYPE svg PUBLIC "-//W3C//DTD SVG 20010904//EN"
 "http://www.w3.org/TR/2001/REC-SVG-20010904/DTD/svg10.dtd">
<svg version="1.0" xmlns="http://www.w3.org/2000/svg"
 width="700.000000pt" height="700.000000pt" viewBox="0 0 700.000000 700.000000"
 preserveAspectRatio="xMidYMid meet">
<metadata>
Created by potrace 1.11, written by Peter Selinger 2001-2013
</metadata>
<g transform="translate(0.000000,700.000000) scale(0.100000,-0.100000)"
fill="#000000" stroke="none">
<path d="M3435 6409 c-52 -12 -2406 -1335 -2464 -1385 -26 -22 -55 -61 -70
-93 l-26 -56 0 -1375 0 -1375 28 -57 c15 -31 44 -71 65 -90 20 -18 576 -336
1234 -706 933 -524 1208 -675 1250 -683 43 -9 66 -8 109 3 67 18 2428 1343
2477 1391 18 17 45 57 60 87 l27 55 0 1375 0 1375 -28 57 c-16 32 -47 74 -70
94 -66 57 -2412 1371 -2470 1384 -55 11 -67 11 -122 -1z m931 -1106 c689 -387
863 -488 852 -498 -24 -22 -1703 -960 -1718 -960 -15 0 -1694 938 -1718 960
-11 9 163 111 850 498 475 267 864 486 865 486 2 1 393 -218 869 -486z m-1986
-1506 l825 -464 3 -976 c1 -538 0 -977 -4 -977 -4 0 -719 401 -1554 872 l-185
105 -3 977 -2 976 47 -24 c27 -14 419 -234 873 -489z m3153 -1438 c-8 -8 -159
-93 -1125 -637 -334 -188 -609 -342 -612 -342 -4 0 -5 440 -4 977 l3 977 870
488 870 488 3 -972 c1 -534 -1 -975 -5 -979z"/>
</g>
</svg>
